<?xml version="1.0" encoding="UTF-8"?>
<svg xmlns="http://www.w3.org/2000/svg" xmlns:xlink="http://www.w3.org/1999/xlink" width="19pt" height="13pt" viewBox="0 0 19 13" version="1.1">
<g id="surface1">
<path style=" stroke:none;fill-rule:nonzero;fill:rgb(38.039216%,85.490196%,98.431373%);fill-opacity:1;" d="M 14.242188 6.5 C 14.242188 5.855469 13.453125 5.246094 12.25 4.867188 C 12.527344 3.605469 12.402344 2.601562 11.859375 2.28125 C 11.730469 2.203125 11.585938 2.167969 11.425781 2.167969 L 11.425781 2.609375 C 11.515625 2.609375 11.585938 2.628906 11.644531 2.664062 C 11.910156 2.816406 12.023438 3.40625 11.933594 4.164062 C 11.914062 4.351562 11.878906 4.546875 11.835938 4.746094 C 11.457031 4.652344 11.042969 4.578125 10.609375 4.53125 C 10.347656 4.164062 10.074219 3.832031 9.804688 3.539062 C 10.433594 2.9375 11.023438 2.609375 11.425781 2.609375 L 11.425781 2.167969 C 10.894531 2.167969 10.199219 2.554688 9.496094 3.230469 C 8.792969 2.558594 8.097656 2.175781 7.566406 2.175781 L 7.566406 2.617188 C 7.964844 2.617188 8.558594 2.945312 9.1875 3.542969 C 8.917969 3.832031 8.648438 4.164062 8.390625 4.53125 C 7.953125 4.578125 7.539062 4.652344 7.160156 4.75 C 7.117188 4.550781 7.085938 4.359375 7.0625 4.175781 C 6.96875 3.417969 7.082031 2.828125 7.34375 2.671875 C 7.402344 2.636719 7.476562 2.617188 7.566406 2.617188 L 7.566406 2.175781 C 7.402344 2.175781 7.257812 2.210938 7.128906 2.289062 C 6.585938 2.609375 6.464844 3.609375 6.742188 4.867188 C 5.542969 5.25 4.757812 5.859375 4.757812 6.5 C 4.757812 7.144531 5.546875 7.757812 6.75 8.136719 C 6.472656 9.398438 6.597656 10.402344 7.140625 10.722656 C 7.269531 10.796875 7.414062 10.832031 7.578125 10.832031 C 8.109375 10.832031 8.804688 10.445312 9.507812 9.769531 C 10.210938 10.441406 10.90625 10.824219 11.4375 10.824219 C 11.601562 10.824219 11.746094 10.789062 11.875 10.714844 C 12.417969 10.394531 12.539062 9.390625 12.261719 8.132812 C 13.457031 7.753906 14.242188 7.144531 14.242188 6.5 Z M 11.726562 5.179688 C 11.652344 5.433594 11.5625 5.699219 11.464844 5.960938 C 11.382812 5.804688 11.300781 5.644531 11.210938 5.484375 C 11.121094 5.328125 11.027344 5.171875 10.933594 5.019531 C 11.207031 5.0625 11.472656 5.113281 11.726562 5.179688 Z M 10.839844 7.289062 C 10.6875 7.558594 10.535156 7.8125 10.375 8.046875 C 10.085938 8.074219 9.792969 8.089844 9.5 8.089844 C 9.207031 8.089844 8.917969 8.074219 8.628906 8.050781 C 8.46875 7.8125 8.3125 7.5625 8.164062 7.296875 C 8.015625 7.035156 7.882812 6.773438 7.761719 6.507812 C 7.878906 6.242188 8.015625 5.976562 8.160156 5.714844 C 8.3125 5.449219 8.464844 5.195312 8.625 4.957031 C 8.914062 4.933594 9.207031 4.917969 9.5 4.917969 C 9.792969 4.917969 10.082031 4.933594 10.371094 4.957031 C 10.53125 5.191406 10.6875 5.445312 10.835938 5.710938 C 10.984375 5.96875 11.117188 6.234375 11.238281 6.5 C 11.117188 6.765625 10.984375 7.03125 10.839844 7.289062 Z M 11.464844 7.03125 C 11.566406 7.296875 11.65625 7.5625 11.730469 7.820312 C 11.476562 7.886719 11.210938 7.9375 10.933594 7.980469 C 11.027344 7.828125 11.125 7.671875 11.210938 7.511719 C 11.300781 7.351562 11.382812 7.191406 11.464844 7.03125 Z M 9.503906 9.148438 C 9.324219 8.957031 9.144531 8.746094 8.964844 8.515625 C 9.140625 8.523438 9.316406 8.527344 9.5 8.527344 C 9.679688 8.527344 9.859375 8.523438 10.035156 8.515625 C 9.863281 8.746094 9.683594 8.957031 9.503906 9.148438 Z M 8.066406 7.980469 C 7.792969 7.9375 7.527344 7.886719 7.273438 7.824219 C 7.34375 7.566406 7.433594 7.304688 7.535156 7.039062 C 7.613281 7.199219 7.695312 7.359375 7.789062 7.515625 C 7.878906 7.675781 7.972656 7.828125 8.066406 7.980469 Z M 9.496094 3.851562 C 9.675781 4.042969 9.855469 4.253906 10.03125 4.488281 C 9.859375 4.480469 9.679688 4.472656 9.5 4.472656 C 9.316406 4.472656 9.136719 4.476562 8.960938 4.488281 C 9.136719 4.253906 9.316406 4.042969 9.496094 3.851562 Z M 8.0625 5.019531 C 7.96875 5.175781 7.875 5.332031 7.785156 5.492188 C 7.695312 5.648438 7.613281 5.808594 7.535156 5.96875 C 7.429688 5.703125 7.339844 5.4375 7.269531 5.179688 C 7.519531 5.117188 7.789062 5.0625 8.0625 5.019531 Z M 6.316406 7.503906 C 5.628906 7.207031 5.1875 6.8125 5.1875 6.5 C 5.1875 6.191406 5.628906 5.792969 6.316406 5.496094 C 6.480469 5.425781 6.664062 5.359375 6.851562 5.296875 C 6.960938 5.6875 7.105469 6.089844 7.285156 6.503906 C 7.105469 6.917969 6.964844 7.320312 6.855469 7.707031 C 6.664062 7.644531 6.484375 7.578125 6.316406 7.503906 Z M 7.355469 10.339844 C 7.089844 10.183594 6.976562 9.59375 7.066406 8.835938 C 7.085938 8.652344 7.121094 8.453125 7.164062 8.253906 C 7.542969 8.351562 7.957031 8.421875 8.390625 8.472656 C 8.652344 8.835938 8.925781 9.171875 9.195312 9.460938 C 8.566406 10.0625 7.976562 10.394531 7.574219 10.394531 C 7.484375 10.390625 7.414062 10.375 7.355469 10.339844 Z M 11.9375 8.828125 C 12.03125 9.585938 11.917969 10.175781 11.65625 10.332031 C 11.597656 10.367188 11.523438 10.382812 11.433594 10.382812 C 11.035156 10.382812 10.441406 10.054688 9.8125 9.457031 C 10.082031 9.167969 10.351562 8.835938 10.609375 8.46875 C 11.046875 8.421875 11.460938 8.347656 11.839844 8.25 C 11.882812 8.449219 11.917969 8.644531 11.9375 8.828125 Z M 12.683594 7.503906 C 12.515625 7.578125 12.335938 7.644531 12.148438 7.707031 C 12.039062 7.316406 11.894531 6.910156 11.714844 6.496094 C 11.890625 6.085938 12.035156 5.683594 12.140625 5.292969 C 12.332031 5.355469 12.515625 5.425781 12.683594 5.496094 C 13.371094 5.796875 13.8125 6.191406 13.8125 6.5 C 13.808594 6.8125 13.367188 7.207031 12.683594 7.503906 Z M 12.683594 7.503906 "/>
<path style=" stroke:none;fill-rule:nonzero;fill:rgb(38.039216%,85.490196%,98.431373%);fill-opacity:1;" d="M 10.382812 6.5 C 10.382812 7 9.984375 7.40625 9.5 7.40625 C 9.011719 7.40625 8.613281 7 8.613281 6.5 C 8.613281 6 9.011719 5.59375 9.5 5.59375 C 9.984375 5.59375 10.382812 6 10.382812 6.5 Z M 10.382812 6.5 "/>
</g>
</svg>
